<svg xmlns="http://www.w3.org/2000/svg" viewBox="0 0 13.33 13.34"><path class="cls-1" d="M6.75,13.34H1.38c-.76,0-1.38-.62-1.38-1.38V6.59H6.75v6.75ZM.75,7.34v4.62c0,.34,.28,.62,.62,.62H6V7.34H.75Z"/><path class="cls-1" d="M11.38,13.34H6V6.59h6.75v5.38c0,.76-.62,1.38-1.38,1.38Zm-4.62-.75h4.62c.34,0,.62-.28,.62-.62V7.34H6.75v5.25Z"/><path class="cls-1" d="M6.75,7.34H0V1.96C0,1.2,.62,.59,1.38,.59H6.75V7.34ZM.75,6.59H6V1.34H1.38c-.34,0-.62,.28-.62,.62V6.59Z"/><path class="cls-1" d="M9.88,6.92c-.35,0-.7-.13-.97-.4l-2.09-2.09c-.54-.54-.54-1.41,0-1.94L8.9,.4c.54-.54,1.41-.54,1.95,0l2.09,2.09c.54,.54,.54,1.41,0,1.94l-2.09,2.09c-.27,.27-.62,.4-.97,.4Zm0-6.17c-.16,0-.32,.06-.44,.18l-2.09,2.09c-.24,.24-.24,.64,0,.88l2.09,2.09c.24,.24,.64,.24,.88,0l2.09-2.09c.24-.24,.24-.64,0-.88L10.32,.93c-.12-.12-.28-.18-.44-.18Z"/></svg>