<svg xmlns="http://www.w3.org/2000/svg" viewBox="0 0 12.75 12.75"><path class="cls-1" d="M11.38,12.75H1.38c-.76,0-1.38-.62-1.38-1.38V1.38C0,.62,.62,0,1.38,0H11.38c.76,0,1.38,.62,1.38,1.38V11.38c0,.76-.62,1.38-1.38,1.38ZM1.38,.75c-.34,0-.62,.28-.62,.62V11.38c0,.34,.28,.62,.62,.62H11.38c.34,0,.62-.28,.62-.62V1.38c0-.34-.28-.62-.62-.62H1.38Z"/><path class="cls-1" d="M5.38,8.91c-.09,0-.19-.04-.26-.1l-2.16-2.08c-.15-.14-.15-.38-.01-.53,.14-.15,.38-.15,.53,0l2.16,2.08c.15,.14,.15,.38,.01,.53-.07,.08-.17,.12-.27,.12Z"/><path class="cls-1" d="M5.38,8.91c-.09,0-.19-.04-.26-.1-.15-.14-.15-.38-.01-.53L9.27,3.95c.14-.15,.38-.15,.53,0,.15,.14,.15,.38,.01,.53l-4.16,4.32c-.07,.08-.17,.12-.27,.12Z"/></svg>