<svg xmlns="http://www.w3.org/2000/svg" viewBox="0 0 10.86 10.9"><path class="cls-1" d="M10.86,5.74c-1.36,0-1.57,.62-1.57,1.45v1.68c0,1.34-.89,2.03-2.28,2.03h-.19v-.53h.25c1.03,0,1.53-.52,1.53-1.49v-1.67c0-.98,.42-1.58,1.24-1.75-.83-.2-1.24-.7-1.24-1.76v-1.64c0-1.06-.71-1.54-1.54-1.54h-.24V0h.19c1.17,0,2.28,.56,2.28,2.04v1.69c0,.78,.14,1.45,1.57,1.45v.56Z"/><path class="cls-1" d="M0,5.18c1.43,0,1.57-.67,1.57-1.45v-1.69C1.57,.56,2.68,0,3.85,0h.19V.53h-.24c-.83,0-1.54,.48-1.54,1.54v1.64c0,1.07-.4,1.56-1.24,1.76,.82,.17,1.24,.77,1.24,1.75v1.67c0,.97,.5,1.49,1.53,1.49h.25v.53h-.19c-1.39,0-2.28-.68-2.28-2.03v-1.68c0-.83-.21-1.45-1.57-1.45v-.56Z"/></svg>