<svg xmlns="http://www.w3.org/2000/svg" viewBox="0 0 10.75 12.75"><path class="cls-1" d="M5.14,12.75H1.33c-.73,0-1.33-.6-1.33-1.33V4.69c0-.74,.6-1.33,1.33-1.33h1.91c.21,0,.38,.17,.38,.38s-.17,.38-.38,.38H1.33c-.32,0-.58,.26-.58,.58v6.72c0,.32,.26,.58,.58,.58h3.81c.32,0,.58-.26,.58-.58v-.96c0-.21,.17-.38,.38-.38s.38,.17,.38,.38v.96c0,.74-.6,1.33-1.33,1.33Z"/><path class="cls-1" d="M9.4,9.39h-3.81c-.72,0-1.3-.6-1.31-1.36V1.3c.02-.72,.62-1.3,1.34-1.3h3.81c.73,0,1.33,.6,1.33,1.33v6.72c0,.75-.59,1.33-1.35,1.34ZM5.61,.75c-.31,0-.58,.26-.59,.56v6.71c0,.34,.26,.62,.56,.62h3.81c.34,0,.6-.26,.6-.59V1.33c0-.32-.26-.58-.58-.58h-3.81Z"/></svg>