<svg xmlns="http://www.w3.org/2000/svg" viewBox="0 0 8.75 12.75"><path class="cls-1" d="M1.88,12.75c-1.03,0-1.88-.84-1.88-1.88s.84-1.88,1.88-1.88,1.88,.84,1.88,1.88-.84,1.88-1.88,1.88Zm0-3c-.62,0-1.12,.5-1.12,1.12s.5,1.12,1.12,1.12,1.12-.5,1.12-1.12-.5-1.12-1.12-1.12Z"/><path class="cls-1" d="M6.88,12.75c-1.03,0-1.88-.84-1.88-1.88s.84-1.88,1.88-1.88,1.88,.84,1.88,1.88-.84,1.88-1.88,1.88Zm0-3c-.62,0-1.12,.5-1.12,1.12s.5,1.12,1.12,1.12,1.12-.5,1.12-1.12-.5-1.12-1.12-1.12Z"/><path class="cls-1" d="M6.38,9.75c-.13,0-.26-.07-.33-.19L1.05,.56c-.1-.18-.04-.41,.15-.51,.18-.1,.41-.04,.51,.15L6.7,9.19c.1,.18,.04,.41-.15,.51-.06,.03-.12,.05-.18,.05Z"/><path class="cls-1" d="M2.38,9.75c-.06,0-.12-.02-.18-.05-.18-.1-.25-.33-.15-.51l2-3.6c.1-.18,.33-.25,.51-.15,.18,.1,.25,.33,.15,.51l-2,3.6c-.07,.12-.2,.19-.33,.19Z"/><path class="cls-1" d="M5.15,4.75c-.06,0-.12-.02-.18-.05-.18-.1-.25-.33-.15-.51L7.05,.19c.1-.18,.33-.25,.51-.15,.18,.1,.25,.33,.15,.51l-2.22,4c-.07,.12-.2,.19-.33,.19Z"/></svg>