<svg xmlns="http://www.w3.org/2000/svg" viewBox="0 0 12.75 12.75"><path class="cls-1" d="M8.62,12.75H4.12c-.63,0-1.12-.6-1.12-1.38L1.43,2H11.32l-1.57,9.44c0,.71-.49,1.31-1.12,1.31ZM2.32,2.75l1.43,8.56c0,.42,.2,.69,.38,.69h4.5c.18,0,.38-.27,.38-.62l1.43-8.62H2.32Z"/><path class="cls-1" d="M12.38,2.75H.38c-.21,0-.38-.17-.38-.38s.17-.38,.38-.38H12.38c.21,0,.38,.17,.38,.38s-.17,.38-.38,.38Z"/><path class="cls-1" d="M5.38,8.75c-.21,0-.38-.17-.38-.38v-3c0-.21,.17-.38,.38-.38s.38,.17,.38,.38v3c0,.21-.17,.38-.38,.38Z"/><path class="cls-1" d="M7.38,8.75c-.21,0-.38-.17-.38-.38v-3c0-.21,.17-.38,.37-.38h0c.21,0,.38,.17,.38,.38v3c0,.21-.17,.38-.37,.38h0Z"/><path class="cls-1" d="M8.38,2.75c-.21,0-.38-.17-.38-.38,0-.9-.73-1.62-1.62-1.62s-1.62,.73-1.62,1.62c0,.21-.17,.38-.38,.38s-.38-.17-.38-.38c0-1.31,1.07-2.38,2.38-2.38s2.38,1.07,2.38,2.38c0,.21-.17,.38-.38,.38Z"/></svg>