<svg id="_鍥惧眰_1" data-name="鍥惧眰 1" xmlns="http://www.w3.org/2000/svg" viewBox="0 0 12.75 12.75"><path class="cls-1" d="M11.38,12.75H1.38c-.76,0-1.38-.62-1.38-1.38v-2c0-.21,.17-.38,.38-.38s.38,.17,.38,.38v2c0,.34,.28,.62,.62,.62H11.38c.34,0,.62-.28,.62-.62v-2c0-.21,.17-.38,.38-.38s.38,.17,.38,.38v2c0,.76-.62,1.38-1.38,1.38Z"/><g><path class="cls-2" d="M6.38,9.89L2.12,5.9c-.15-.14-.16-.38-.02-.53,.14-.15,.38-.16,.53-.02l3.74,3.51,3.74-3.51c.15-.14,.39-.14,.53,.02,.14,.15,.13,.39-.02,.53l-4.26,3.99Z"/><path class="cls-2" d="M6.38,9.75c-.21,0-.38-.17-.38-.38V.38c0-.21,.17-.38,.38-.38s.38,.17,.38,.38V9.38c0,.21-.17,.38-.38,.38Z"/></g></svg>