<svg xmlns="http://www.w3.org/2000/svg" viewBox="0 0 8.75 12.75"><path class="cls-1" d="M.38,12.75c-.21,0-.38-.17-.38-.38V.38c0-.21,.17-.38,.38-.38s.38,.17,.38,.38V12.38c0,.21-.17,.38-.38,.38Z"/><path class="cls-1" d="M8.38,.75H.38c-.21,0-.38-.17-.38-.38s.17-.38,.38-.38H8.38c.21,0,.38,.17,.38,.38s-.17,.38-.38,.38Z"/><path class="cls-1" d="M6.38,3.75c-.07,0-.14-.02-.21-.06-.17-.11-.22-.35-.1-.52L8.06,.17c.12-.17,.35-.22,.52-.1,.17,.11,.22,.35,.1,.52l-2,3c-.07,.11-.19,.17-.31,.17Z"/><path class="cls-1" d="M8.38,6.75c-.12,0-.24-.06-.31-.17l-2-3c-.11-.17-.07-.41,.1-.52,.17-.11,.41-.07,.52,.1l2,3c.11,.17,.07,.41-.1,.52-.06,.04-.14,.06-.21,.06Z"/><path class="cls-1" d="M8.38,6.75H.38c-.21,0-.38-.17-.38-.38s.17-.38,.38-.38H8.38c.21,0,.38,.17,.38,.38s-.17,.38-.38,.38Z"/></svg>