<svg xmlns="http://www.w3.org/2000/svg" viewBox="0 0 12.75 12.75"><path class="cls-1" d="M12.38,6.75c-.21,0-.38-.17-.38-.38C12,3.27,9.48,.75,6.38,.75S.75,3.27,.75,6.38c0,.21-.17,.38-.38,.38s-.38-.17-.38-.38C0,2.86,2.86,0,6.38,0s6.38,2.86,6.38,6.38c0,.21-.17,.38-.38,.38Z"/><path class="cls-1" d="M3.75,12.75H1.38c-.76,0-1.38-.62-1.38-1.38v-3.38H3.75v4.75ZM.75,8.75v2.62c0,.34,.28,.62,.62,.62h1.62v-3.25H.75Z"/><path class="cls-1" d="M11.38,12.75h-2.38v-4.75h3.75v3.38c0,.76-.62,1.38-1.38,1.38Zm-1.62-.75h1.62c.34,0,.62-.28,.62-.62v-2.62h-2.25v3.25Z"/><path class="cls-1" d="M.38,8.75c-.21,0-.38-.17-.38-.38v-2c0-.21,.17-.38,.38-.38s.38,.17,.38,.38v2c0,.21-.17,.38-.38,.38Z"/><path class="cls-1" d="M12.38,8.75c-.21,0-.38-.17-.38-.38v-2c0-.21,.17-.38,.38-.38s.38,.17,.38,.38v2c0,.21-.17,.38-.38,.38Z"/></svg>