<svg xmlns="http://www.w3.org/2000/svg" viewBox="0 0 13.09 10.91"><path class="cls-1" d="M9.24,.04c-.61,.11-1.12,.3-1.55,.59l-.44,.36-.69,.69C5.56,.92,5.13,0,3.29,.02l-.78,.13c-.66,.2-1.3,.59-1.68,1.07-.23,.28-.45,.63-.59,.99-.84,2.12,.61,3.45,1.6,4.43l1.72,1.7,2.12,2.1c.26,.21,.45,.56,1.01,.46,.67-.12,1.37-1.1,1.81-1.53,.83-.83,1.67-1.65,2.5-2.48,.77-.77,1.64-1.41,1.97-2.62C13.61,1.97,11.48-.35,9.24,.04h0Zm2.71,4.62c-.33,.56-.84,.96-1.28,1.41-.83,.83-1.67,1.65-2.5,2.48-.23,.23-1.41,1.53-1.62,1.51-.21,.02-.48-.4-.63-.55l-1.68-1.66c-.69-.68-1.37-1.36-2.06-2.04-.4-.4-.87-.77-1.11-1.32-.42-.98-.11-2.19,.44-2.79,.31-.34,.76-.63,1.26-.78,.18-.03,.36-.06,.55-.08,1.05,0,1.29,.39,1.93,.69l1.3,1.3c.67-.52,1.13-1.32,1.91-1.72,1.71-.87,3.4,.36,3.74,1.78,.15,.62-.02,1.37-.25,1.76h0Z"/></svg>