<svg xmlns="http://www.w3.org/2000/svg" viewBox="0 0 12.75 12.45"><path class="cls-1" d="M11.38,12.45h-3c-.21,0-.38-.17-.38-.38v-3c0-.34-.28-.62-.62-.62h-2c-.34,0-.62,.28-.62,.62v3c0,.21-.17,.38-.38,.38H1.38c-.76,0-1.38-.62-1.38-1.38V5.07c0-.11,.05-.22,.13-.29L5.49,.32c.51-.42,1.25-.42,1.76,0h0l5.36,4.47c.08,.07,.13,.18,.13,.29v6c0,.76-.62,1.38-1.38,1.38Zm-2.62-.75h2.62c.34,0,.62-.28,.62-.62V5.25L6.78,.89h0c-.23-.19-.57-.19-.8,0L.75,5.25v5.82c0,.34,.28,.62,.62,.62h2.62v-2.62c0-.76,.62-1.38,1.38-1.38h2c.76,0,1.38,.62,1.38,1.38v2.62Z"/></svg>