<svg xmlns="http://www.w3.org/2000/svg" viewBox="0 0 10.75 10.75"><path class="cls-1" d="M10.38,5.75c-.21,0-.38-.17-.38-.38V.75H5.38c-.21,0-.38-.17-.38-.38s.17-.38,.38-.38h5.38V5.38c0,.21-.17,.38-.38,.38Z"/><path class="cls-1" d="M8.78,10.75H1.14c-.63,0-1.14-.51-1.14-1.14V1.97C0,1.34,.51,.83,1.14,.83h3.06c.21,0,.38,.17,.38,.38s-.17,.38-.38,.38H1.14c-.21,0-.39,.17-.39,.39v7.64c0,.21,.17,.39,.39,.39h7.64c.21,0,.39-.17,.39-.39v-3.06c0-.21,.17-.38,.38-.38s.38,.17,.38,.38v3.06c0,.63-.51,1.14-1.14,1.14Z"/><path class="cls-1" d="M3.71,7.42c-.1,0-.19-.04-.27-.11-.15-.15-.15-.38,0-.53L10.11,.11c.15-.15,.38-.15,.53,0,.15,.15,.15,.38,0,.53L3.97,7.31c-.07,.07-.17,.11-.27,.11Z"/></svg>