<svg xmlns="http://www.w3.org/2000/svg" viewBox="0 0 12.75 9.75"><path class="cls-1" d="M12.38,8.75s-.05,0-.07,0L.3,6.34c-.18-.04-.3-.19-.3-.37V2.78c0-.18,.13-.33,.3-.37L12.3,0c.11-.02,.22,0,.31,.08,.09,.07,.14,.18,.14,.29V8.38c0,.11-.05,.22-.14,.29-.07,.06-.15,.08-.24,.08ZM.75,5.67l11.25,2.25V.83L.75,3.08v2.58Z"/><path class="cls-1" d="M4.38,9.75c-1.31,0-2.38-1.07-2.38-2.38,0-.42,.11-.83,.32-1.19l.65,.38c-.14,.25-.22,.53-.22,.81,0,.9,.73,1.62,1.62,1.62s1.62-.73,1.62-1.62h.75c0,1.31-1.07,2.38-2.38,2.38Z"/></svg>