<svg xmlns="http://www.w3.org/2000/svg" viewBox="0 0 12.09 11.01"><path class="cls-1" d="M0,11.01l1.72-3.64c-.25-.63-.38-1.3-.38-1.99C1.34,2.41,3.75,0,6.71,0s5.38,2.41,5.38,5.37-2.41,5.38-5.38,5.38c-1.11,0-2.16-.33-3.06-.96l-3.65,1.22Zm3.78-2.05l.16,.12c.8,.6,1.76,.92,2.77,.92,2.55,0,4.62-2.07,4.62-4.62S9.26,.75,6.71,.75,2.09,2.82,2.09,5.37c0,.64,.13,1.27,.38,1.85l.07,.16-1.12,2.36,2.36-.79Z"/><path class="cls-1" d="M8.71,3.75H4.71c-.21,0-.38-.17-.38-.38s.17-.38,.38-.38h4c.21,0,.38,.17,.38,.38s-.17,.38-.38,.38Z"/><path class="cls-1" d="M6.71,6.75h-2c-.21,0-.38-.17-.38-.38s.17-.38,.38-.38h2c.21,0,.38,.17,.38,.38s-.17,.38-.38,.38Z"/></svg>