<svg xmlns="http://www.w3.org/2000/svg" viewBox="0 0 10.75 12.75"><path class="cls-1" d="M5.38,8.75c-1.31,0-2.38-1.07-2.38-2.38V2.38c0-1.31,1.07-2.38,2.38-2.38s2.38,1.07,2.38,2.38V6.38c0,1.31-1.07,2.38-2.38,2.38ZM5.38,.75c-.9,0-1.62,.73-1.62,1.62V6.38c0,.9,.73,1.62,1.62,1.62s1.62-.73,1.62-1.62V2.38c0-.9-.73-1.62-1.62-1.62Z"/><path class="cls-1" d="M5.38,10.75C2.41,10.75,0,8.34,0,5.38c0-.21,.17-.38,.38-.38s.38,.17,.38,.38c0,2.55,2.08,4.62,4.62,4.62s4.62-2.07,4.62-4.62c0-.21,.17-.38,.38-.38s.38,.17,.38,.38c0,2.96-2.41,5.38-5.38,5.38Z"/><path class="cls-1" d="M5.38,12.75c-.21,0-.38-.17-.38-.38v-2c0-.21,.17-.38,.38-.38s.38,.17,.38,.38v2c0,.21-.17,.38-.38,.38Z"/></svg>