<svg xmlns="http://www.w3.org/2000/svg" viewBox="0 0 11.4 14.75"><path class="cls-1" d="M10.02,14.75H2.02c-.76,0-1.38-.62-1.38-1.38V5.77H11.4v7.61c0,.76-.62,1.38-1.38,1.38ZM1.4,6.52v6.86c0,.34,.28,.62,.62,.62H10.02c.34,0,.62-.28,.62-.62V6.52H1.4Z"/><path class="cls-1" d="M.77,6.62L.06,4.29c-.23-.74,.18-1.52,.9-1.76L8.59,.07c.35-.11,.72-.08,1.04,.09,.33,.17,.58,.47,.69,.83l.71,2.32L.77,6.62ZM9.01,.75c-.06,0-.12,0-.19,.03L1.19,3.25c-.33,.11-.52,.48-.41,.82l.49,1.6L10.09,2.81l-.49-1.61c-.05-.17-.17-.31-.32-.39-.09-.05-.18-.07-.28-.07Z"/><rect class="cls-1" x="6.26" y="1.95" width="4" height=".75" transform="translate(3.05 9.13) rotate(-68.31)"/><rect class="cls-1" x="3.3" y="2.69" width="4" height=".75" transform="translate(.49 6.86) rotate(-68.31)"/><rect class="cls-1" x=".32" y="3.61" width="4" height=".75" transform="translate(-2.24 4.67) rotate(-68.31)"/></svg>