<svg xmlns="http://www.w3.org/2000/svg" viewBox="0 0 10.75 13.75"><path class="cls-1" d="M1.88,13.75c-1.03,0-1.88-.82-1.88-1.83s.84-1.83,1.88-1.83,1.88,.82,1.88,1.83-.84,1.83-1.88,1.83Zm0-2.91c-.62,0-1.12,.48-1.12,1.08s.5,1.08,1.12,1.08,1.12-.48,1.12-1.08-.5-1.08-1.12-1.08Z"/><path class="cls-1" d="M3.38,12.05c-.21,0-.38-.17-.38-.38V2.46c0-.21,.17-.38,.38-.38s.38,.17,.38,.38V11.68c0,.21-.17,.38-.38,.38Z"/><path class="cls-1" d="M8.88,11.81c-1.03,0-1.88-.82-1.88-1.83s.84-1.83,1.88-1.83,1.88,.82,1.88,1.83-.84,1.83-1.88,1.83Zm0-2.91c-.62,0-1.12,.48-1.12,1.08s.5,1.08,1.12,1.08,1.12-.48,1.12-1.08-.5-1.08-1.12-1.08Z"/><path class="cls-1" d="M10.38,10.11c-.21,0-.38-.17-.38-.38V.52c0-.21,.17-.38,.38-.38s.38,.17,.38,.38V9.74c0,.21-.17,.38-.38,.38Z"/><path class="cls-1" d="M3.38,2.69c-.16,0-.32-.11-.36-.27-.06-.2,.06-.41,.26-.46L10.27,.01c.2-.05,.41,.06,.46,.26,.06,.2-.06,.41-.26,.46L3.48,2.68s-.07,.01-.1,.01Z"/><path class="cls-1" d="M3.38,5.02c-.16,0-.32-.11-.36-.27-.06-.2,.06-.41,.26-.46l7-1.94c.2-.05,.41,.06,.46,.26,.06,.2-.06,.41-.26,.46l-7,1.94s-.07,.01-.1,.01Z"/></svg>