<svg xmlns="http://www.w3.org/2000/svg" viewBox="0 0 10.75 12.75"><path class="cls-1" d="M4.38,12.75H1.38c-.76,0-1.38-.58-1.38-1.3V2.22C0,1.51,.62,.92,1.38,.92h1c.21,0,.38,.17,.38,.38s-.17,.38-.38,.38H1.38c-.34,0-.62,.25-.62,.55V11.45c0,.3,.28,.55,.62,.55h3c.21,0,.38,.17,.38,.38s-.17,.38-.38,.38Z"/><path class="cls-1" d="M9.26,5.75c-.21,0-.38-.17-.38-.38V2.22c0-.3-.34-.55-.74-.55h-1.11c-.21,0-.38-.17-.38-.38s.17-.38,.38-.38h1.11c.82,0,1.49,.58,1.49,1.3v3.15c0,.21-.17,.38-.38,.38Z"/><path class="cls-1" d="M6.12,2.6H3.52c-.72,0-1.3-.58-1.3-1.3s.58-1.3,1.3-1.3h2.6c.72,0,1.3,.58,1.3,1.3s-.58,1.3-1.3,1.3ZM3.52,.75c-.3,0-.55,.25-.55,.55s.25,.55,.55,.55h2.6c.3,0,.55-.25,.55-.55s-.25-.55-.55-.55H3.52Z"/><path class="cls-1" d="M9.38,12.75h-2.5c-.76,0-1.38-.62-1.38-1.38v-3.57c0-.76,.62-1.38,1.38-1.38h2.5c.76,0,1.38,.62,1.38,1.38v3.57c0,.76-.62,1.38-1.38,1.38Zm-2.5-5.57c-.34,0-.62,.28-.62,.62v3.57c0,.34,.28,.62,.62,.62h2.5c.34,0,.62-.28,.62-.62v-3.57c0-.34-.28-.62-.62-.62h-2.5Z"/></svg>