<svg xmlns="http://www.w3.org/2000/svg" viewBox="0 0 10.75 10.75"><path class="cls-1" d="M2.38,10.75H1.38c-.76,0-1.38-.62-1.38-1.38V1.38C0,.62,.62,0,1.38,0h1c.76,0,1.38,.62,1.38,1.38V9.38c0,.76-.62,1.38-1.38,1.38ZM1.38,.75c-.34,0-.62,.28-.62,.62V9.38c0,.34,.28,.62,.62,.62h1c.34,0,.62-.28,.62-.62V1.38c0-.34-.28-.62-.62-.62H1.38Z"/><path class="cls-1" d="M9.38,10.75h-1c-.76,0-1.38-.62-1.38-1.38V1.38c0-.76,.62-1.38,1.38-1.38h1c.76,0,1.38,.62,1.38,1.38V9.38c0,.76-.62,1.38-1.38,1.38ZM8.38,.75c-.34,0-.62,.28-.62,.62V9.38c0,.34,.28,.62,.62,.62h1c.34,0,.62-.28,.62-.62V1.38c0-.34-.28-.62-.62-.62h-1Z"/></svg>