<svg xmlns="http://www.w3.org/2000/svg" viewBox="0 0 12.75 12.75"><path class="cls-1" d="M11.38,12.75H1.38C.62,12.75,0,12.13,0,11.38V1.38C0,.62,.62,0,1.38,0H11.38c.76,0,1.38,.62,1.38,1.38V11.38c0,.76-.62,1.38-1.38,1.38ZM1.38,.75c-.34,0-.62,.28-.62,.62V11.38c0,.34,.28,.62,.62,.62H11.38c.34,0,.62-.28,.62-.62V1.38c0-.34-.28-.62-.62-.62H1.38Z"/><path class="cls-1" d="M11.37,12.75H1.38c-.6,0-1.11-.37-1.3-.94-.19-.57,0-1.17,.48-1.53l5-3.75c.49-.36,1.16-.36,1.65,0l5,3.75c.48,.36,.67,.96,.48,1.53-.19,.57-.7,.94-1.3,.94ZM6,7.12L1,10.88c-.26,.2-.29,.49-.22,.7,.07,.21,.26,.43,.59,.43H11.37c.33,0,.52-.22,.59-.43,.07-.21,.05-.5-.22-.7l-5-3.75c-.22-.17-.53-.17-.75,0Z"/><path class="cls-1" d="M9.38,4.75c-.76,0-1.38-.62-1.38-1.38s.62-1.38,1.38-1.38,1.38,.62,1.38,1.38-.62,1.38-1.38,1.38Zm0-2c-.34,0-.62,.28-.62,.62s.28,.62,.62,.62,.62-.28,.62-.62-.28-.62-.62-.62Z"/></svg>