<svg xmlns="http://www.w3.org/2000/svg" viewBox="0 0 14.75 12.75"><path class="cls-1" d="M1.88,3.75c-1.03,0-1.88-.84-1.88-1.88S.84,0,1.88,0s1.88,.84,1.88,1.88-.84,1.88-1.88,1.88ZM1.88,.75C1.25,.75,.75,1.25,.75,1.88s.5,1.12,1.12,1.12,1.12-.5,1.12-1.12S2.5,.75,1.88,.75Z"/><circle class="cls-1" cx="1.88" cy="1.88" r=".64"/><path class="cls-1" d="M1.88,8.25c-1.03,0-1.88-.84-1.88-1.88s.84-1.88,1.88-1.88,1.88,.84,1.88,1.88-.84,1.88-1.88,1.88Zm0-3c-.62,0-1.12,.5-1.12,1.12s.5,1.12,1.12,1.12,1.12-.5,1.12-1.12-.5-1.12-1.12-1.12Z"/><path class="cls-1" d="M1.88,12.75c-1.03,0-1.88-.84-1.88-1.88s.84-1.88,1.88-1.88,1.88,.84,1.88,1.88-.84,1.88-1.88,1.88Zm0-3c-.62,0-1.12,.5-1.12,1.12s.5,1.12,1.12,1.12,1.12-.5,1.12-1.12-.5-1.12-1.12-1.12Z"/><path class="cls-1" d="M14.38,2.25H5.38c-.21,0-.38-.17-.38-.38s.17-.38,.38-.38H14.38c.21,0,.38,.17,.38,.38s-.17,.38-.38,.38Z"/><path class="cls-1" d="M14.38,6.75H5.38c-.21,0-.38-.17-.38-.38s.17-.38,.38-.38H14.38c.21,0,.38,.17,.38,.38s-.17,.38-.38,.38Z"/><path class="cls-1" d="M14.38,11.25H5.38c-.21,0-.38-.17-.38-.38s.17-.38,.38-.38H14.38c.21,0,.38,.17,.38,.38s-.17,.38-.38,.38Z"/></svg>