<svg xmlns="http://www.w3.org/2000/svg" viewBox="0 0 12.17 12.75"><path class="cls-1" d="M6.09,12.75c-.45,0-.9-.05-1.34-.14-.19-.04-.32-.22-.29-.41,.08-.65-.24-1.27-.8-1.6-.56-.32-1.26-.28-1.78,.1-.16,.11-.37,.09-.5-.05-.62-.68-1.07-1.46-1.35-2.32-.06-.18,.03-.38,.21-.46,.6-.26,.98-.84,.98-1.49s-.39-1.24-.98-1.49c-.18-.08-.27-.28-.21-.46,.28-.86,.73-1.64,1.35-2.32,.13-.14,.34-.17,.5-.05,.52,.39,1.22,.43,1.78,.1,.56-.32,.88-.95,.8-1.6-.02-.19,.1-.37,.29-.41C5.64-.05,6.54-.05,7.43,.14c.19,.04,.32,.22,.29,.41-.08,.65,.24,1.27,.8,1.6,.56,.32,1.26,.28,1.78-.1,.16-.12,.37-.09,.5,.05,.62,.68,1.07,1.46,1.35,2.32,.06,.18-.03,.38-.21,.46-.6,.26-.98,.84-.98,1.49s.39,1.24,.98,1.49c.18,.08,.27,.28,.21,.46-.28,.86-.73,1.64-1.35,2.32-.13,.14-.35,.16-.5,.05-.52-.39-1.22-.43-1.78-.1-.56,.32-.88,.95-.8,1.6,.02,.19-.1,.37-.29,.41-.45,.1-.9,.14-1.34,.14Zm-.88-.82c.59,.09,1.17,.09,1.75,0,.02-.81,.47-1.57,1.19-1.98,.72-.41,1.59-.42,2.3-.04,.38-.46,.67-.97,.88-1.52-.69-.43-1.12-1.19-1.12-2.02s.43-1.59,1.12-2.02c-.21-.55-.51-1.06-.88-1.52-.71,.38-1.59,.38-2.3-.04-.72-.42-1.16-1.17-1.19-1.98-.59-.09-1.17-.09-1.75,0-.02,.81-.47,1.57-1.19,1.98-.72,.41-1.59,.42-2.3,.04-.38,.46-.67,.97-.88,1.52,.69,.43,1.12,1.19,1.12,2.02s-.43,1.59-1.12,2.02c.21,.55,.51,1.06,.88,1.52,.72-.38,1.59-.38,2.3,.04,.72,.42,1.16,1.17,1.19,1.98Z"/><path class="cls-1" d="M6.09,8.75c-1.31,0-2.38-1.07-2.38-2.38s1.07-2.38,2.38-2.38,2.38,1.07,2.38,2.38-1.07,2.38-2.38,2.38Zm0-4c-.9,0-1.62,.73-1.62,1.62s.73,1.62,1.62,1.62,1.62-.73,1.62-1.62-.73-1.62-1.62-1.62Z"/></svg>