<svg xmlns="http://www.w3.org/2000/svg" viewBox="0 0 11.91 12.28"><path class="cls-1" d="M9.54,12.28H1.21c-.67,0-1.21-.54-1.21-1.21V2.74c0-.67,.54-1.21,1.21-1.21h3.33c.21,0,.38,.17,.38,.38s-.17,.38-.38,.38H1.21c-.25,0-.46,.21-.46,.46V11.07c0,.25,.21,.46,.46,.46H9.54c.25,0,.46-.21,.46-.46v-3.33c0-.21,.17-.38,.38-.38s.38,.17,.38,.38v3.33c0,.67-.54,1.21-1.21,1.21Z"/><path class="cls-1" d="M1.97,9.84l.03-.95s.21-4.9,5-6.28V0l4.91,4.91-4.91,4.91v-2.81c-.1-.16-.22-.24-.39-.27-.96-.16-2.94,1.41-3.97,2.44l-.67,.67Zm4.51-3.87c.08,0,.17,0,.25,.02,.43,.07,.77,.33,.98,.75l.04,.17v1.09l3.09-3.09L7.75,1.81v1.39l-.28,.07c-3.22,.8-4.24,3.24-4.57,4.64,.92-.8,2.44-1.94,3.58-1.94Z"/></svg>