<svg xmlns="http://www.w3.org/2000/svg" viewBox="0 0 14.72 3.75"><path class="cls-1" d="M14.35,2.25H7.35c-.21,0-.38-.17-.38-.38s.17-.38,.38-.38h7c.21,0,.38,.17,.38,.38s-.17,.38-.38,.38Z"/><path class="cls-1" d="M2.38,2.25H.38c-.21,0-.38-.17-.38-.38s.17-.38,.38-.38H2.38c.21,0,.38,.17,.38,.38s-.17,.38-.38,.38Z"/><path class="cls-1" d="M4.88,3.75c-1.03,0-1.88-.84-1.88-1.88s.84-1.88,1.88-1.88,1.88,.84,1.88,1.88-.84,1.88-1.88,1.88Zm0-3c-.62,0-1.12,.5-1.12,1.12s.5,1.12,1.12,1.12,1.12-.5,1.12-1.12-.5-1.12-1.12-1.12Z"/></svg>