<svg xmlns="http://www.w3.org/2000/svg" viewBox="0 0 14.75 6.75"><path class="cls-1" d="M3.38,6.75c-1.86,0-3.38-1.51-3.38-3.38S1.51,0,3.38,0c.21,0,.38,.17,.38,.38s-.17,.38-.38,.38C1.93,.75,.75,1.93,.75,3.38s1.18,2.62,2.62,2.62c.21,0,.38,.17,.38,.38s-.17,.38-.38,.38Z"/><path class="cls-1" d="M11.38,6.75c-.21,0-.38-.17-.38-.38s.17-.38,.38-.38c1.45,0,2.62-1.18,2.62-2.62s-1.18-2.62-2.62-2.62c-.21,0-.38-.17-.38-.38s.17-.38,.38-.38c1.86,0,3.38,1.51,3.38,3.38s-1.51,3.38-3.38,3.38Z"/><path class="cls-1" d="M11.38,.75H3.38c-.21,0-.38-.17-.38-.38s.17-.38,.38-.38H11.38c.21,0,.38,.17,.38,.38s-.17,.38-.38,.38Z"/><path class="cls-1" d="M11.38,6.75H3.38c-.21,0-.38-.17-.38-.38s.17-.38,.38-.38H11.38c.21,0,.38,.17,.38,.38s-.17,.38-.38,.38Z"/><path class="cls-1" d="M3.38,5.5c-1.17,0-2.12-.95-2.12-2.12S2.2,1.25,3.38,1.25s2.12,.95,2.12,2.12-.95,2.12-2.12,2.12Zm0-3.5c-.76,0-1.38,.62-1.38,1.38s.62,1.38,1.38,1.38,1.38-.62,1.38-1.38-.62-1.38-1.38-1.38Z"/></svg>