<svg t="1709454440672" class="icon" viewBox="0 0 1024 1024" version="1.1" xmlns="http://www.w3.org/2000/svg" p-id="2455" width="200" height="200"><path d="M409.50916862 949.50911678c-20.39949651 0-40.25663167-8.61627676-55.89788581-24.2530578L87.64733954 659.29323398c-31.98254579-31.98254579-31.98813714-76.65970205-0.0111827-108.64224784l404.53894647-404.48750601c22.72997294-22.70089788 61.05758741-36.8090027 100.04162689-36.80900269h246.26783909c48.42112702 0 74.01946462 25.59833762 74.01946463 74.01946463v246.2678391c0 30.54556777-12.04042204 60.78249279-32.19501725 80.94715243L465.60834316 925.25046764c-15.64796375 15.64796375-35.57219516 24.25864915-56.09917454 24.25864914z m182.7142712-781.71939704c-23.32712956 0-46.91593448 7.91735749-58.69356289 19.68939453L128.95738235 591.9666203c-6.43005729 6.43005729-11.45109332 14.54870351 0.0111827 26.01097954l265.95835191 265.95835192c3.25752293 3.25640465 8.4384717 7.14463234 14.58225166 7.14463234 6.30928403 0 11.52042611-3.88822768 14.77794903-7.14575061l414.70067351-414.62686764c9.16758427-9.14969196 15.08771007-24.72273155 15.08771007-39.66618468V183.37953341c0-10.42563897-1.80936221-13.58699061-1.99275862-13.86655831-0.06262317-0.01118271-2.97795522-1.72325535-13.59817332-1.72325536H592.22343982z" p-id="2456"></path><path d="M602.56856328 367.51400857a50.43065971 50.43065971 0 1 0 100.86131939 0 50.43065971 50.43065971 0 1 0-100.86131939 0z" p-id="2457"></path></svg>