<svg id="_鍥惧眰_1" data-name="鍥惧眰 1" xmlns="http://www.w3.org/2000/svg" viewBox="0 0 12.3 12.3"><path class="cls-1" d="M5.65,12.3c-.07,0-.14,0-.21-.02-.39-.06-.78-.26-1.09-.57L.58,7.95C.27,7.64,.07,7.25,.02,6.86c-.06-.42,.06-.82,.33-1.09L6,.11c.07-.07,.17-.11,.27-.11h4.15c.97,0,1.88,.92,1.88,1.88V6.03c0,.1-.04,.19-.11,.27l-5.66,5.66c-.22,.22-.54,.35-.88,.35ZM6.42,.75L.88,6.3c-.14,.14-.13,.35-.12,.46,.03,.23,.16,.47,.35,.66l3.77,3.77c.19,.19,.43,.32,.66,.35,.11,.01,.32,.02,.46-.12l5.55-5.55V1.88c0-.55-.58-1.13-1.13-1.13h-3.99Z"/><circle class="cls-1" cx="9.09" cy="3.37" r="1"/></svg>